# xmcd
#
# Track frame offsets: 
#        150
#        25398
#        39286
#        56500
#        71845
#        84880
#        99166
#        102759
#        121405
#        145805
#        165520
#        177528
#        200552
#        218521
#
# Disc length: 3183 seconds
#
# Revision: 0
# Processed by: cddbd v1.5.2PL0 Copyright (c) Steve Scherf et al.
# Submitted via: ExactAudioCopyFreeDBPlugin 1.0
#
DISCID=b70c6d0e
DTITLE=群星 - 极品试音皇A
DYEAR=2009
DGENRE=Acid
TTITLE0=天堂
TTITLE1=梅花三弄
TTITLE2=喀秋莎
TTITLE3=水上音乐序曲
TTITLE4=被遗忘的时光
TTITLE5=拉德斯基进行曲[交响乐]
TTITLE6=F-16战斗机 [效果声]
TTITLE7=雪花飞扬
TTITLE8=我和春天有个约会
TTITLE9=加州旅馆
TTITLE10=布兰诗歌
TTITLE11=梦花语
TTITLE12=往事如昔
TTITLE13=走天涯
EXTD=
EXTT0=
EXTT1=
EXTT2=
EXTT3=
EXTT4=
EXTT5=
EXTT6=
EXTT7=
EXTT8=
EXTT9=
EXTT10=
EXTT11=
EXTT12=
EXTT13=
PLAYORDER=
